<svg width="95" height="95" viewBox="0 0 95 95" fill="none" xmlns="http://www.w3.org/2000/svg">
<path fill-rule="evenodd" clip-rule="evenodd" d="M79.1666 43.5417C79.1666 61.0307 64.989 75.2083 47.5 83.125C30.011 75.2083 15.8333 61.0307 15.8333 43.5417C15.8333 26.0526 30.011 11.875 47.5 11.875C64.989 11.875 79.1666 26.0526 79.1666 43.5417ZM47.5 55.4167C54.0584 55.4167 59.375 50.1 59.375 43.5417C59.375 36.9833 54.0584 31.6667 47.5 31.6667C40.9416 31.6667 35.625 36.9833 35.625 43.5417C35.625 50.1 40.9416 55.4167 47.5 55.4167Z" fill="#095100"/>
<path d="M47.5 55.4167C54.0584 55.4167 59.375 50.1 59.375 43.5417C59.375 36.9833 54.0584 31.6667 47.5 31.6667C40.9416 31.6667 35.625 36.9833 35.625 43.5417C35.625 50.1 40.9416 55.4167 47.5 55.4167Z" stroke="#020F00" stroke-linecap="round" stroke-linejoin="round"/>
<path d="M47.5 83.125C64.989 75.2083 79.1666 61.0307 79.1666 43.5417C79.1666 26.0526 64.989 11.875 47.5 11.875C30.011 11.875 15.8333 26.0526 15.8333 43.5417C15.8333 61.0307 30.011 75.2083 47.5 83.125Z" stroke="#020F00" stroke-linecap="round" stroke-linejoin="round"/>
</svg>
